M48
; DRILL file {KiCad 5.1.10-1.fc32} date Mon Aug  9 17:47:21 2021
; FORMAT={-:-/ absolute / metric / decimal}
; #@! TF.CreationDate,2021-08-09T17:47:21+02:00
; #@! TF.GenerationSoftware,Kicad,Pcbnew,5.1.10-1.fc32
; #@! TF.FileFunction,Plated,1,2,PTH
FMAT,2
METRIC
T1C1.000
%
G90
G05
T1
X190.5Y-81.28
X190.5Y-83.82
X190.5Y-86.36
X190.5Y-88.9
X190.5Y-91.44
X190.5Y-93.98
X196.85Y-81.28
X196.85Y-83.82
X196.85Y-86.36
X196.85Y-88.9
X196.85Y-91.44
X196.85Y-93.98
X207.01Y-76.2
X207.01Y-78.74
X207.01Y-81.28
X207.01Y-83.82
X207.01Y-86.36
X207.01Y-88.9
X207.01Y-91.44
X207.01Y-93.98
X207.01Y-96.52
X207.01Y-99.06
X209.55Y-76.2
X209.55Y-78.74
X209.55Y-81.28
X209.55Y-83.82
X209.55Y-86.36
X209.55Y-88.9
X209.55Y-91.44
X209.55Y-93.98
X209.55Y-96.52
X209.55Y-99.06
T0
M30
