%TF.GenerationSoftware,KiCad,Pcbnew,5.1.10-1.fc32*%
%TF.CreationDate,2021-08-09T17:47:35+02:00*%
%TF.ProjectId,stlink_dongle,73746c69-6e6b-45f6-946f-6e676c652e6b,rev?*%
%TF.SameCoordinates,Original*%
%TF.FileFunction,Copper,L2,Bot*%
%TF.FilePolarity,Positive*%
%FSLAX46Y46*%
G04 Gerber Fmt 4.6, Leading zero omitted, Abs format (unit mm)*
G04 Created by KiCad (PCBNEW 5.1.10-1.fc32) date 2021-08-09 17:47:35*
%MOMM*%
%LPD*%
G01*
G04 APERTURE LIST*
%TA.AperFunction,ComponentPad*%
%ADD10R,1.700000X1.700000*%
%TD*%
%TA.AperFunction,ComponentPad*%
%ADD11O,1.700000X1.700000*%
%TD*%
%TA.AperFunction,Conductor*%
%ADD12C,0.254000*%
%TD*%
%TA.AperFunction,Conductor*%
%ADD13C,0.100000*%
%TD*%
G04 APERTURE END LIST*
D10*
%TO.P,J1,1*%
%TO.N,/target_vdd*%
X190500000Y-81280000D03*
D11*
%TO.P,J1,2*%
%TO.N,/swd_io*%
X190500000Y-83820000D03*
%TO.P,J1,3*%
%TO.N,/swd_clk*%
X190500000Y-86360000D03*
%TO.P,J1,4*%
%TO.N,GND*%
X190500000Y-88900000D03*
%TO.P,J1,5*%
%TO.N,/traceswo*%
X190500000Y-91440000D03*
%TO.P,J1,6*%
%TO.N,/nrst*%
X190500000Y-93980000D03*
%TD*%
D10*
%TO.P,J2,1*%
%TO.N,/target_vdd*%
X196850000Y-81280000D03*
D11*
%TO.P,J2,2*%
%TO.N,/swd_io*%
X196850000Y-83820000D03*
%TO.P,J2,3*%
%TO.N,/swd_clk*%
X196850000Y-86360000D03*
%TO.P,J2,4*%
%TO.N,GND*%
X196850000Y-88900000D03*
%TO.P,J2,5*%
%TO.N,/traceswo*%
X196850000Y-91440000D03*
%TO.P,J2,6*%
%TO.N,/nrst*%
X196850000Y-93980000D03*
%TD*%
D10*
%TO.P,J3,1*%
%TO.N,/target_vdd*%
X207010000Y-76200000D03*
D11*
%TO.P,J3,2*%
X209550000Y-76200000D03*
%TO.P,J3,3*%
%TO.N,GND*%
X207010000Y-78740000D03*
%TO.P,J3,4*%
X209550000Y-78740000D03*
%TO.P,J3,5*%
X207010000Y-81280000D03*
%TO.P,J3,6*%
X209550000Y-81280000D03*
%TO.P,J3,7*%
%TO.N,/swd_io*%
X207010000Y-83820000D03*
%TO.P,J3,8*%
%TO.N,GND*%
X209550000Y-83820000D03*
%TO.P,J3,9*%
%TO.N,/swd_clk*%
X207010000Y-86360000D03*
%TO.P,J3,10*%
%TO.N,GND*%
X209550000Y-86360000D03*
%TO.P,J3,11*%
%TO.N,Net-(J3-Pad11)*%
X207010000Y-88900000D03*
%TO.P,J3,12*%
%TO.N,GND*%
X209550000Y-88900000D03*
%TO.P,J3,13*%
%TO.N,/traceswo*%
X207010000Y-91440000D03*
%TO.P,J3,14*%
%TO.N,GND*%
X209550000Y-91440000D03*
%TO.P,J3,15*%
%TO.N,/nrst*%
X207010000Y-93980000D03*
%TO.P,J3,16*%
%TO.N,GND*%
X209550000Y-93980000D03*
%TO.P,J3,17*%
%TO.N,Net-(J3-Pad17)*%
X207010000Y-96520000D03*
%TO.P,J3,18*%
%TO.N,GND*%
X209550000Y-96520000D03*
%TO.P,J3,19*%
%TO.N,Net-(J3-Pad19)*%
X207010000Y-99060000D03*
%TO.P,J3,20*%
%TO.N,GND*%
X209550000Y-99060000D03*
%TD*%
D12*
%TO.N,GND*%
X211405001Y-100915000D02*
X188645000Y-100915000D01*
X188645000Y-91293740D01*
X189015000Y-91293740D01*
X189015000Y-91586260D01*
X189072068Y-91873158D01*
X189184010Y-92143411D01*
X189346525Y-92386632D01*
X189553368Y-92593475D01*
X189727760Y-92710000D01*
X189553368Y-92826525D01*
X189346525Y-93033368D01*
X189184010Y-93276589D01*
X189072068Y-93546842D01*
X189015000Y-93833740D01*
X189015000Y-94126260D01*
X189072068Y-94413158D01*
X189184010Y-94683411D01*
X189346525Y-94926632D01*
X189553368Y-95133475D01*
X189796589Y-95295990D01*
X190066842Y-95407932D01*
X190353740Y-95465000D01*
X190646260Y-95465000D01*
X190933158Y-95407932D01*
X191203411Y-95295990D01*
X191446632Y-95133475D01*
X191653475Y-94926632D01*
X191815990Y-94683411D01*
X191927932Y-94413158D01*
X191985000Y-94126260D01*
X191985000Y-93833740D01*
X191927932Y-93546842D01*
X191815990Y-93276589D01*
X191653475Y-93033368D01*
X191446632Y-92826525D01*
X191272240Y-92710000D01*
X191446632Y-92593475D01*
X191653475Y-92386632D01*
X191815990Y-92143411D01*
X191927932Y-91873158D01*
X191985000Y-91586260D01*
X191985000Y-91293740D01*
X195365000Y-91293740D01*
X195365000Y-91586260D01*
X195422068Y-91873158D01*
X195534010Y-92143411D01*
X195696525Y-92386632D01*
X195903368Y-92593475D01*
X196077760Y-92710000D01*
X195903368Y-92826525D01*
X195696525Y-93033368D01*
X195534010Y-93276589D01*
X195422068Y-93546842D01*
X195365000Y-93833740D01*
X195365000Y-94126260D01*
X195422068Y-94413158D01*
X195534010Y-94683411D01*
X195696525Y-94926632D01*
X195903368Y-95133475D01*
X196146589Y-95295990D01*
X196416842Y-95407932D01*
X196703740Y-95465000D01*
X196996260Y-95465000D01*
X197283158Y-95407932D01*
X197553411Y-95295990D01*
X197796632Y-95133475D01*
X198003475Y-94926632D01*
X198165990Y-94683411D01*
X198277932Y-94413158D01*
X198335000Y-94126260D01*
X198335000Y-93833740D01*
X198277932Y-93546842D01*
X198165990Y-93276589D01*
X198003475Y-93033368D01*
X197796632Y-92826525D01*
X197622240Y-92710000D01*
X197796632Y-92593475D01*
X198003475Y-92386632D01*
X198165990Y-92143411D01*
X198277932Y-91873158D01*
X198335000Y-91586260D01*
X198335000Y-91293740D01*
X198277932Y-91006842D01*
X198165990Y-90736589D01*
X198003475Y-90493368D01*
X197796632Y-90286525D01*
X197614466Y-90164805D01*
X197731355Y-90095178D01*
X197947588Y-89900269D01*
X198121641Y-89666920D01*
X198246825Y-89404099D01*
X198291476Y-89256890D01*
X198170155Y-89027000D01*
X196977000Y-89027000D01*
X196977000Y-89047000D01*
X196723000Y-89047000D01*
X196723000Y-89027000D01*
X195529845Y-89027000D01*
X195408524Y-89256890D01*
X195453175Y-89404099D01*
X195578359Y-89666920D01*
X195752412Y-89900269D01*
X195968645Y-90095178D01*
X196085534Y-90164805D01*
X195903368Y-90286525D01*
X195696525Y-90493368D01*
X195534010Y-90736589D01*
X195422068Y-91006842D01*
X195365000Y-91293740D01*
X191985000Y-91293740D01*
X191927932Y-91006842D01*
X191815990Y-90736589D01*
X191653475Y-90493368D01*
X191446632Y-90286525D01*
X191264466Y-90164805D01*
X191381355Y-90095178D01*
X191597588Y-89900269D01*
X191771641Y-89666920D01*
X191896825Y-89404099D01*
X191941476Y-89256890D01*
X191820155Y-89027000D01*
X190627000Y-89027000D01*
X190627000Y-89047000D01*
X190373000Y-89047000D01*
X190373000Y-89027000D01*
X189179845Y-89027000D01*
X189058524Y-89256890D01*
X189103175Y-89404099D01*
X189228359Y-89666920D01*
X189402412Y-89900269D01*
X189618645Y-90095178D01*
X189735534Y-90164805D01*
X189553368Y-90286525D01*
X189346525Y-90493368D01*
X189184010Y-90736589D01*
X189072068Y-91006842D01*
X189015000Y-91293740D01*
X188645000Y-91293740D01*
X188645000Y-80430000D01*
X189011928Y-80430000D01*
X189011928Y-82130000D01*
X189024188Y-82254482D01*
X189060498Y-82374180D01*
X189119463Y-82484494D01*
X189198815Y-82581185D01*
X189295506Y-82660537D01*
X189405820Y-82719502D01*
X189478380Y-82741513D01*
X189346525Y-82873368D01*
X189184010Y-83116589D01*
X189072068Y-83386842D01*
X189015000Y-83673740D01*
X189015000Y-83966260D01*
X189072068Y-84253158D01*
X189184010Y-84523411D01*
X189346525Y-84766632D01*
X189553368Y-84973475D01*
X189727760Y-85090000D01*
X189553368Y-85206525D01*
X189346525Y-85413368D01*
X189184010Y-85656589D01*
X189072068Y-85926842D01*
X189015000Y-86213740D01*
X189015000Y-86506260D01*
X189072068Y-86793158D01*
X189184010Y-87063411D01*
X189346525Y-87306632D01*
X189553368Y-87513475D01*
X189735534Y-87635195D01*
X189618645Y-87704822D01*
X189402412Y-87899731D01*
X189228359Y-88133080D01*
X189103175Y-88395901D01*
X189058524Y-88543110D01*
X189179845Y-88773000D01*
X190373000Y-88773000D01*
X190373000Y-88753000D01*
X190627000Y-88753000D01*
X190627000Y-88773000D01*
X191820155Y-88773000D01*
X191941476Y-88543110D01*
X191896825Y-88395901D01*
X191771641Y-88133080D01*
X191597588Y-87899731D01*
X191381355Y-87704822D01*
X191264466Y-87635195D01*
X191446632Y-87513475D01*
X191653475Y-87306632D01*
X191815990Y-87063411D01*
X191927932Y-86793158D01*
X191985000Y-86506260D01*
X191985000Y-86213740D01*
X191927932Y-85926842D01*
X191815990Y-85656589D01*
X191653475Y-85413368D01*
X191446632Y-85206525D01*
X191272240Y-85090000D01*
X191446632Y-84973475D01*
X191653475Y-84766632D01*
X191815990Y-84523411D01*
X191927932Y-84253158D01*
X191985000Y-83966260D01*
X191985000Y-83673740D01*
X191927932Y-83386842D01*
X191815990Y-83116589D01*
X191653475Y-82873368D01*
X191521620Y-82741513D01*
X191594180Y-82719502D01*
X191704494Y-82660537D01*
X191801185Y-82581185D01*
X191880537Y-82484494D01*
X191939502Y-82374180D01*
X191975812Y-82254482D01*
X191988072Y-82130000D01*
X191988072Y-80430000D01*
X195361928Y-80430000D01*
X195361928Y-82130000D01*
X195374188Y-82254482D01*
X195410498Y-82374180D01*
X195469463Y-82484494D01*
X195548815Y-82581185D01*
X195645506Y-82660537D01*
X195755820Y-82719502D01*
X195828380Y-82741513D01*
X195696525Y-82873368D01*
X195534010Y-83116589D01*
X195422068Y-83386842D01*
X195365000Y-83673740D01*
X195365000Y-83966260D01*
X195422068Y-84253158D01*
X195534010Y-84523411D01*
X195696525Y-84766632D01*
X195903368Y-84973475D01*
X196077760Y-85090000D01*
X195903368Y-85206525D01*
X195696525Y-85413368D01*
X195534010Y-85656589D01*
X195422068Y-85926842D01*
X195365000Y-86213740D01*
X195365000Y-86506260D01*
X195422068Y-86793158D01*
X195534010Y-87063411D01*
X195696525Y-87306632D01*
X195903368Y-87513475D01*
X196085534Y-87635195D01*
X195968645Y-87704822D01*
X195752412Y-87899731D01*
X195578359Y-88133080D01*
X195453175Y-88395901D01*
X195408524Y-88543110D01*
X195529845Y-88773000D01*
X196723000Y-88773000D01*
X196723000Y-88753000D01*
X196977000Y-88753000D01*
X196977000Y-88773000D01*
X198170155Y-88773000D01*
X198291476Y-88543110D01*
X198246825Y-88395901D01*
X198121641Y-88133080D01*
X197947588Y-87899731D01*
X197731355Y-87704822D01*
X197614466Y-87635195D01*
X197796632Y-87513475D01*
X198003475Y-87306632D01*
X198165990Y-87063411D01*
X198277932Y-86793158D01*
X198335000Y-86506260D01*
X198335000Y-86213740D01*
X198277932Y-85926842D01*
X198165990Y-85656589D01*
X198003475Y-85413368D01*
X197796632Y-85206525D01*
X197622240Y-85090000D01*
X197796632Y-84973475D01*
X198003475Y-84766632D01*
X198165990Y-84523411D01*
X198277932Y-84253158D01*
X198335000Y-83966260D01*
X198335000Y-83673740D01*
X205525000Y-83673740D01*
X205525000Y-83966260D01*
X205582068Y-84253158D01*
X205694010Y-84523411D01*
X205856525Y-84766632D01*
X206063368Y-84973475D01*
X206237760Y-85090000D01*
X206063368Y-85206525D01*
X205856525Y-85413368D01*
X205694010Y-85656589D01*
X205582068Y-85926842D01*
X205525000Y-86213740D01*
X205525000Y-86506260D01*
X205582068Y-86793158D01*
X205694010Y-87063411D01*
X205856525Y-87306632D01*
X206063368Y-87513475D01*
X206237760Y-87630000D01*
X206063368Y-87746525D01*
X205856525Y-87953368D01*
X205694010Y-88196589D01*
X205582068Y-88466842D01*
X205525000Y-88753740D01*
X205525000Y-89046260D01*
X205582068Y-89333158D01*
X205694010Y-89603411D01*
X205856525Y-89846632D01*
X206063368Y-90053475D01*
X206237760Y-90170000D01*
X206063368Y-90286525D01*
X205856525Y-90493368D01*
X205694010Y-90736589D01*
X205582068Y-91006842D01*
X205525000Y-91293740D01*
X205525000Y-91586260D01*
X205582068Y-91873158D01*
X205694010Y-92143411D01*
X205856525Y-92386632D01*
X206063368Y-92593475D01*
X206237760Y-92710000D01*
X206063368Y-92826525D01*
X205856525Y-93033368D01*
X205694010Y-93276589D01*
X205582068Y-93546842D01*
X205525000Y-93833740D01*
X205525000Y-94126260D01*
X205582068Y-94413158D01*
X205694010Y-94683411D01*
X205856525Y-94926632D01*
X206063368Y-95133475D01*
X206237760Y-95250000D01*
X206063368Y-95366525D01*
X205856525Y-95573368D01*
X205694010Y-95816589D01*
X205582068Y-96086842D01*
X205525000Y-96373740D01*
X205525000Y-96666260D01*
X205582068Y-96953158D01*
X205694010Y-97223411D01*
X205856525Y-97466632D01*
X206063368Y-97673475D01*
X206237760Y-97790000D01*
X206063368Y-97906525D01*
X205856525Y-98113368D01*
X205694010Y-98356589D01*
X205582068Y-98626842D01*
X205525000Y-98913740D01*
X205525000Y-99206260D01*
X205582068Y-99493158D01*
X205694010Y-99763411D01*
X205856525Y-100006632D01*
X206063368Y-100213475D01*
X206306589Y-100375990D01*
X206576842Y-100487932D01*
X206863740Y-100545000D01*
X207156260Y-100545000D01*
X207443158Y-100487932D01*
X207713411Y-100375990D01*
X207956632Y-100213475D01*
X208163475Y-100006632D01*
X208281100Y-99830594D01*
X208452412Y-100060269D01*
X208668645Y-100255178D01*
X208918748Y-100404157D01*
X209193109Y-100501481D01*
X209423000Y-100380814D01*
X209423000Y-99187000D01*
X209677000Y-99187000D01*
X209677000Y-100380814D01*
X209906891Y-100501481D01*
X210181252Y-100404157D01*
X210431355Y-100255178D01*
X210647588Y-100060269D01*
X210821641Y-99826920D01*
X210946825Y-99564099D01*
X210991476Y-99416890D01*
X210870155Y-99187000D01*
X209677000Y-99187000D01*
X209423000Y-99187000D01*
X209403000Y-99187000D01*
X209403000Y-98933000D01*
X209423000Y-98933000D01*
X209423000Y-96647000D01*
X209677000Y-96647000D01*
X209677000Y-98933000D01*
X210870155Y-98933000D01*
X210991476Y-98703110D01*
X210946825Y-98555901D01*
X210821641Y-98293080D01*
X210647588Y-98059731D01*
X210431355Y-97864822D01*
X210305745Y-97790000D01*
X210431355Y-97715178D01*
X210647588Y-97520269D01*
X210821641Y-97286920D01*
X210946825Y-97024099D01*
X210991476Y-96876890D01*
X210870155Y-96647000D01*
X209677000Y-96647000D01*
X209423000Y-96647000D01*
X209403000Y-96647000D01*
X209403000Y-96393000D01*
X209423000Y-96393000D01*
X209423000Y-94107000D01*
X209677000Y-94107000D01*
X209677000Y-96393000D01*
X210870155Y-96393000D01*
X210991476Y-96163110D01*
X210946825Y-96015901D01*
X210821641Y-95753080D01*
X210647588Y-95519731D01*
X210431355Y-95324822D01*
X210305745Y-95250000D01*
X210431355Y-95175178D01*
X210647588Y-94980269D01*
X210821641Y-94746920D01*
X210946825Y-94484099D01*
X210991476Y-94336890D01*
X210870155Y-94107000D01*
X209677000Y-94107000D01*
X209423000Y-94107000D01*
X209403000Y-94107000D01*
X209403000Y-93853000D01*
X209423000Y-93853000D01*
X209423000Y-91567000D01*
X209677000Y-91567000D01*
X209677000Y-93853000D01*
X210870155Y-93853000D01*
X210991476Y-93623110D01*
X210946825Y-93475901D01*
X210821641Y-93213080D01*
X210647588Y-92979731D01*
X210431355Y-92784822D01*
X210305745Y-92710000D01*
X210431355Y-92635178D01*
X210647588Y-92440269D01*
X210821641Y-92206920D01*
X210946825Y-91944099D01*
X210991476Y-91796890D01*
X210870155Y-91567000D01*
X209677000Y-91567000D01*
X209423000Y-91567000D01*
X209403000Y-91567000D01*
X209403000Y-91313000D01*
X209423000Y-91313000D01*
X209423000Y-89027000D01*
X209677000Y-89027000D01*
X209677000Y-91313000D01*
X210870155Y-91313000D01*
X210991476Y-91083110D01*
X210946825Y-90935901D01*
X210821641Y-90673080D01*
X210647588Y-90439731D01*
X210431355Y-90244822D01*
X210305745Y-90170000D01*
X210431355Y-90095178D01*
X210647588Y-89900269D01*
X210821641Y-89666920D01*
X210946825Y-89404099D01*
X210991476Y-89256890D01*
X210870155Y-89027000D01*
X209677000Y-89027000D01*
X209423000Y-89027000D01*
X209403000Y-89027000D01*
X209403000Y-88773000D01*
X209423000Y-88773000D01*
X209423000Y-86487000D01*
X209677000Y-86487000D01*
X209677000Y-88773000D01*
X210870155Y-88773000D01*
X210991476Y-88543110D01*
X210946825Y-88395901D01*
X210821641Y-88133080D01*
X210647588Y-87899731D01*
X210431355Y-87704822D01*
X210305745Y-87630000D01*
X210431355Y-87555178D01*
X210647588Y-87360269D01*
X210821641Y-87126920D01*
X210946825Y-86864099D01*
X210991476Y-86716890D01*
X210870155Y-86487000D01*
X209677000Y-86487000D01*
X209423000Y-86487000D01*
X209403000Y-86487000D01*
X209403000Y-86233000D01*
X209423000Y-86233000D01*
X209423000Y-83947000D01*
X209677000Y-83947000D01*
X209677000Y-86233000D01*
X210870155Y-86233000D01*
X210991476Y-86003110D01*
X210946825Y-85855901D01*
X210821641Y-85593080D01*
X210647588Y-85359731D01*
X210431355Y-85164822D01*
X210305745Y-85090000D01*
X210431355Y-85015178D01*
X210647588Y-84820269D01*
X210821641Y-84586920D01*
X210946825Y-84324099D01*
X210991476Y-84176890D01*
X210870155Y-83947000D01*
X209677000Y-83947000D01*
X209423000Y-83947000D01*
X209403000Y-83947000D01*
X209403000Y-83693000D01*
X209423000Y-83693000D01*
X209423000Y-81407000D01*
X209677000Y-81407000D01*
X209677000Y-83693000D01*
X210870155Y-83693000D01*
X210991476Y-83463110D01*
X210946825Y-83315901D01*
X210821641Y-83053080D01*
X210647588Y-82819731D01*
X210431355Y-82624822D01*
X210305745Y-82550000D01*
X210431355Y-82475178D01*
X210647588Y-82280269D01*
X210821641Y-82046920D01*
X210946825Y-81784099D01*
X210991476Y-81636890D01*
X210870155Y-81407000D01*
X209677000Y-81407000D01*
X209423000Y-81407000D01*
X207137000Y-81407000D01*
X207137000Y-81427000D01*
X206883000Y-81427000D01*
X206883000Y-81407000D01*
X205689845Y-81407000D01*
X205568524Y-81636890D01*
X205613175Y-81784099D01*
X205738359Y-82046920D01*
X205912412Y-82280269D01*
X206128645Y-82475178D01*
X206245534Y-82544805D01*
X206063368Y-82666525D01*
X205856525Y-82873368D01*
X205694010Y-83116589D01*
X205582068Y-83386842D01*
X205525000Y-83673740D01*
X198335000Y-83673740D01*
X198277932Y-83386842D01*
X198165990Y-83116589D01*
X198003475Y-82873368D01*
X197871620Y-82741513D01*
X197944180Y-82719502D01*
X198054494Y-82660537D01*
X198151185Y-82581185D01*
X198230537Y-82484494D01*
X198289502Y-82374180D01*
X198325812Y-82254482D01*
X198338072Y-82130000D01*
X198338072Y-80430000D01*
X198325812Y-80305518D01*
X198289502Y-80185820D01*
X198230537Y-80075506D01*
X198151185Y-79978815D01*
X198054494Y-79899463D01*
X197944180Y-79840498D01*
X197824482Y-79804188D01*
X197700000Y-79791928D01*
X196000000Y-79791928D01*
X195875518Y-79804188D01*
X195755820Y-79840498D01*
X195645506Y-79899463D01*
X195548815Y-79978815D01*
X195469463Y-80075506D01*
X195410498Y-80185820D01*
X195374188Y-80305518D01*
X195361928Y-80430000D01*
X191988072Y-80430000D01*
X191975812Y-80305518D01*
X191939502Y-80185820D01*
X191880537Y-80075506D01*
X191801185Y-79978815D01*
X191704494Y-79899463D01*
X191594180Y-79840498D01*
X191474482Y-79804188D01*
X191350000Y-79791928D01*
X189650000Y-79791928D01*
X189525518Y-79804188D01*
X189405820Y-79840498D01*
X189295506Y-79899463D01*
X189198815Y-79978815D01*
X189119463Y-80075506D01*
X189060498Y-80185820D01*
X189024188Y-80305518D01*
X189011928Y-80430000D01*
X188645000Y-80430000D01*
X188645000Y-79096890D01*
X205568524Y-79096890D01*
X205613175Y-79244099D01*
X205738359Y-79506920D01*
X205912412Y-79740269D01*
X206128645Y-79935178D01*
X206254255Y-80010000D01*
X206128645Y-80084822D01*
X205912412Y-80279731D01*
X205738359Y-80513080D01*
X205613175Y-80775901D01*
X205568524Y-80923110D01*
X205689845Y-81153000D01*
X206883000Y-81153000D01*
X206883000Y-78867000D01*
X207137000Y-78867000D01*
X207137000Y-81153000D01*
X209423000Y-81153000D01*
X209423000Y-78867000D01*
X209677000Y-78867000D01*
X209677000Y-81153000D01*
X210870155Y-81153000D01*
X210991476Y-80923110D01*
X210946825Y-80775901D01*
X210821641Y-80513080D01*
X210647588Y-80279731D01*
X210431355Y-80084822D01*
X210305745Y-80010000D01*
X210431355Y-79935178D01*
X210647588Y-79740269D01*
X210821641Y-79506920D01*
X210946825Y-79244099D01*
X210991476Y-79096890D01*
X210870155Y-78867000D01*
X209677000Y-78867000D01*
X209423000Y-78867000D01*
X207137000Y-78867000D01*
X206883000Y-78867000D01*
X205689845Y-78867000D01*
X205568524Y-79096890D01*
X188645000Y-79096890D01*
X188645000Y-75350000D01*
X205521928Y-75350000D01*
X205521928Y-77050000D01*
X205534188Y-77174482D01*
X205570498Y-77294180D01*
X205629463Y-77404494D01*
X205708815Y-77501185D01*
X205805506Y-77580537D01*
X205915820Y-77639502D01*
X205996466Y-77663966D01*
X205912412Y-77739731D01*
X205738359Y-77973080D01*
X205613175Y-78235901D01*
X205568524Y-78383110D01*
X205689845Y-78613000D01*
X206883000Y-78613000D01*
X206883000Y-78593000D01*
X207137000Y-78593000D01*
X207137000Y-78613000D01*
X209423000Y-78613000D01*
X209423000Y-78593000D01*
X209677000Y-78593000D01*
X209677000Y-78613000D01*
X210870155Y-78613000D01*
X210991476Y-78383110D01*
X210946825Y-78235901D01*
X210821641Y-77973080D01*
X210647588Y-77739731D01*
X210431355Y-77544822D01*
X210314466Y-77475195D01*
X210496632Y-77353475D01*
X210703475Y-77146632D01*
X210865990Y-76903411D01*
X210977932Y-76633158D01*
X211035000Y-76346260D01*
X211035000Y-76053740D01*
X210977932Y-75766842D01*
X210865990Y-75496589D01*
X210703475Y-75253368D01*
X210496632Y-75046525D01*
X210253411Y-74884010D01*
X209983158Y-74772068D01*
X209696260Y-74715000D01*
X209403740Y-74715000D01*
X209116842Y-74772068D01*
X208846589Y-74884010D01*
X208603368Y-75046525D01*
X208471513Y-75178380D01*
X208449502Y-75105820D01*
X208390537Y-74995506D01*
X208311185Y-74898815D01*
X208214494Y-74819463D01*
X208104180Y-74760498D01*
X207984482Y-74724188D01*
X207860000Y-74711928D01*
X206160000Y-74711928D01*
X206035518Y-74724188D01*
X205915820Y-74760498D01*
X205805506Y-74819463D01*
X205708815Y-74898815D01*
X205629463Y-74995506D01*
X205570498Y-75105820D01*
X205534188Y-75225518D01*
X205521928Y-75350000D01*
X188645000Y-75350000D01*
X188645000Y-74345000D01*
X211405000Y-74345000D01*
X211405001Y-100915000D01*
%TA.AperFunction,Conductor*%
D13*
G36*
X211405001Y-100915000D02*
G01*
X188645000Y-100915000D01*
X188645000Y-91293740D01*
X189015000Y-91293740D01*
X189015000Y-91586260D01*
X189072068Y-91873158D01*
X189184010Y-92143411D01*
X189346525Y-92386632D01*
X189553368Y-92593475D01*
X189727760Y-92710000D01*
X189553368Y-92826525D01*
X189346525Y-93033368D01*
X189184010Y-93276589D01*
X189072068Y-93546842D01*
X189015000Y-93833740D01*
X189015000Y-94126260D01*
X189072068Y-94413158D01*
X189184010Y-94683411D01*
X189346525Y-94926632D01*
X189553368Y-95133475D01*
X189796589Y-95295990D01*
X190066842Y-95407932D01*
X190353740Y-95465000D01*
X190646260Y-95465000D01*
X190933158Y-95407932D01*
X191203411Y-95295990D01*
X191446632Y-95133475D01*
X191653475Y-94926632D01*
X191815990Y-94683411D01*
X191927932Y-94413158D01*
X191985000Y-94126260D01*
X191985000Y-93833740D01*
X191927932Y-93546842D01*
X191815990Y-93276589D01*
X191653475Y-93033368D01*
X191446632Y-92826525D01*
X191272240Y-92710000D01*
X191446632Y-92593475D01*
X191653475Y-92386632D01*
X191815990Y-92143411D01*
X191927932Y-91873158D01*
X191985000Y-91586260D01*
X191985000Y-91293740D01*
X195365000Y-91293740D01*
X195365000Y-91586260D01*
X195422068Y-91873158D01*
X195534010Y-92143411D01*
X195696525Y-92386632D01*
X195903368Y-92593475D01*
X196077760Y-92710000D01*
X195903368Y-92826525D01*
X195696525Y-93033368D01*
X195534010Y-93276589D01*
X195422068Y-93546842D01*
X195365000Y-93833740D01*
X195365000Y-94126260D01*
X195422068Y-94413158D01*
X195534010Y-94683411D01*
X195696525Y-94926632D01*
X195903368Y-95133475D01*
X196146589Y-95295990D01*
X196416842Y-95407932D01*
X196703740Y-95465000D01*
X196996260Y-95465000D01*
X197283158Y-95407932D01*
X197553411Y-95295990D01*
X197796632Y-95133475D01*
X198003475Y-94926632D01*
X198165990Y-94683411D01*
X198277932Y-94413158D01*
X198335000Y-94126260D01*
X198335000Y-93833740D01*
X198277932Y-93546842D01*
X198165990Y-93276589D01*
X198003475Y-93033368D01*
X197796632Y-92826525D01*
X197622240Y-92710000D01*
X197796632Y-92593475D01*
X198003475Y-92386632D01*
X198165990Y-92143411D01*
X198277932Y-91873158D01*
X198335000Y-91586260D01*
X198335000Y-91293740D01*
X198277932Y-91006842D01*
X198165990Y-90736589D01*
X198003475Y-90493368D01*
X197796632Y-90286525D01*
X197614466Y-90164805D01*
X197731355Y-90095178D01*
X197947588Y-89900269D01*
X198121641Y-89666920D01*
X198246825Y-89404099D01*
X198291476Y-89256890D01*
X198170155Y-89027000D01*
X196977000Y-89027000D01*
X196977000Y-89047000D01*
X196723000Y-89047000D01*
X196723000Y-89027000D01*
X195529845Y-89027000D01*
X195408524Y-89256890D01*
X195453175Y-89404099D01*
X195578359Y-89666920D01*
X195752412Y-89900269D01*
X195968645Y-90095178D01*
X196085534Y-90164805D01*
X195903368Y-90286525D01*
X195696525Y-90493368D01*
X195534010Y-90736589D01*
X195422068Y-91006842D01*
X195365000Y-91293740D01*
X191985000Y-91293740D01*
X191927932Y-91006842D01*
X191815990Y-90736589D01*
X191653475Y-90493368D01*
X191446632Y-90286525D01*
X191264466Y-90164805D01*
X191381355Y-90095178D01*
X191597588Y-89900269D01*
X191771641Y-89666920D01*
X191896825Y-89404099D01*
X191941476Y-89256890D01*
X191820155Y-89027000D01*
X190627000Y-89027000D01*
X190627000Y-89047000D01*
X190373000Y-89047000D01*
X190373000Y-89027000D01*
X189179845Y-89027000D01*
X189058524Y-89256890D01*
X189103175Y-89404099D01*
X189228359Y-89666920D01*
X189402412Y-89900269D01*
X189618645Y-90095178D01*
X189735534Y-90164805D01*
X189553368Y-90286525D01*
X189346525Y-90493368D01*
X189184010Y-90736589D01*
X189072068Y-91006842D01*
X189015000Y-91293740D01*
X188645000Y-91293740D01*
X188645000Y-80430000D01*
X189011928Y-80430000D01*
X189011928Y-82130000D01*
X189024188Y-82254482D01*
X189060498Y-82374180D01*
X189119463Y-82484494D01*
X189198815Y-82581185D01*
X189295506Y-82660537D01*
X189405820Y-82719502D01*
X189478380Y-82741513D01*
X189346525Y-82873368D01*
X189184010Y-83116589D01*
X189072068Y-83386842D01*
X189015000Y-83673740D01*
X189015000Y-83966260D01*
X189072068Y-84253158D01*
X189184010Y-84523411D01*
X189346525Y-84766632D01*
X189553368Y-84973475D01*
X189727760Y-85090000D01*
X189553368Y-85206525D01*
X189346525Y-85413368D01*
X189184010Y-85656589D01*
X189072068Y-85926842D01*
X189015000Y-86213740D01*
X189015000Y-86506260D01*
X189072068Y-86793158D01*
X189184010Y-87063411D01*
X189346525Y-87306632D01*
X189553368Y-87513475D01*
X189735534Y-87635195D01*
X189618645Y-87704822D01*
X189402412Y-87899731D01*
X189228359Y-88133080D01*
X189103175Y-88395901D01*
X189058524Y-88543110D01*
X189179845Y-88773000D01*
X190373000Y-88773000D01*
X190373000Y-88753000D01*
X190627000Y-88753000D01*
X190627000Y-88773000D01*
X191820155Y-88773000D01*
X191941476Y-88543110D01*
X191896825Y-88395901D01*
X191771641Y-88133080D01*
X191597588Y-87899731D01*
X191381355Y-87704822D01*
X191264466Y-87635195D01*
X191446632Y-87513475D01*
X191653475Y-87306632D01*
X191815990Y-87063411D01*
X191927932Y-86793158D01*
X191985000Y-86506260D01*
X191985000Y-86213740D01*
X191927932Y-85926842D01*
X191815990Y-85656589D01*
X191653475Y-85413368D01*
X191446632Y-85206525D01*
X191272240Y-85090000D01*
X191446632Y-84973475D01*
X191653475Y-84766632D01*
X191815990Y-84523411D01*
X191927932Y-84253158D01*
X191985000Y-83966260D01*
X191985000Y-83673740D01*
X191927932Y-83386842D01*
X191815990Y-83116589D01*
X191653475Y-82873368D01*
X191521620Y-82741513D01*
X191594180Y-82719502D01*
X191704494Y-82660537D01*
X191801185Y-82581185D01*
X191880537Y-82484494D01*
X191939502Y-82374180D01*
X191975812Y-82254482D01*
X191988072Y-82130000D01*
X191988072Y-80430000D01*
X195361928Y-80430000D01*
X195361928Y-82130000D01*
X195374188Y-82254482D01*
X195410498Y-82374180D01*
X195469463Y-82484494D01*
X195548815Y-82581185D01*
X195645506Y-82660537D01*
X195755820Y-82719502D01*
X195828380Y-82741513D01*
X195696525Y-82873368D01*
X195534010Y-83116589D01*
X195422068Y-83386842D01*
X195365000Y-83673740D01*
X195365000Y-83966260D01*
X195422068Y-84253158D01*
X195534010Y-84523411D01*
X195696525Y-84766632D01*
X195903368Y-84973475D01*
X196077760Y-85090000D01*
X195903368Y-85206525D01*
X195696525Y-85413368D01*
X195534010Y-85656589D01*
X195422068Y-85926842D01*
X195365000Y-86213740D01*
X195365000Y-86506260D01*
X195422068Y-86793158D01*
X195534010Y-87063411D01*
X195696525Y-87306632D01*
X195903368Y-87513475D01*
X196085534Y-87635195D01*
X195968645Y-87704822D01*
X195752412Y-87899731D01*
X195578359Y-88133080D01*
X195453175Y-88395901D01*
X195408524Y-88543110D01*
X195529845Y-88773000D01*
X196723000Y-88773000D01*
X196723000Y-88753000D01*
X196977000Y-88753000D01*
X196977000Y-88773000D01*
X198170155Y-88773000D01*
X198291476Y-88543110D01*
X198246825Y-88395901D01*
X198121641Y-88133080D01*
X197947588Y-87899731D01*
X197731355Y-87704822D01*
X197614466Y-87635195D01*
X197796632Y-87513475D01*
X198003475Y-87306632D01*
X198165990Y-87063411D01*
X198277932Y-86793158D01*
X198335000Y-86506260D01*
X198335000Y-86213740D01*
X198277932Y-85926842D01*
X198165990Y-85656589D01*
X198003475Y-85413368D01*
X197796632Y-85206525D01*
X197622240Y-85090000D01*
X197796632Y-84973475D01*
X198003475Y-84766632D01*
X198165990Y-84523411D01*
X198277932Y-84253158D01*
X198335000Y-83966260D01*
X198335000Y-83673740D01*
X205525000Y-83673740D01*
X205525000Y-83966260D01*
X205582068Y-84253158D01*
X205694010Y-84523411D01*
X205856525Y-84766632D01*
X206063368Y-84973475D01*
X206237760Y-85090000D01*
X206063368Y-85206525D01*
X205856525Y-85413368D01*
X205694010Y-85656589D01*
X205582068Y-85926842D01*
X205525000Y-86213740D01*
X205525000Y-86506260D01*
X205582068Y-86793158D01*
X205694010Y-87063411D01*
X205856525Y-87306632D01*
X206063368Y-87513475D01*
X206237760Y-87630000D01*
X206063368Y-87746525D01*
X205856525Y-87953368D01*
X205694010Y-88196589D01*
X205582068Y-88466842D01*
X205525000Y-88753740D01*
X205525000Y-89046260D01*
X205582068Y-89333158D01*
X205694010Y-89603411D01*
X205856525Y-89846632D01*
X206063368Y-90053475D01*
X206237760Y-90170000D01*
X206063368Y-90286525D01*
X205856525Y-90493368D01*
X205694010Y-90736589D01*
X205582068Y-91006842D01*
X205525000Y-91293740D01*
X205525000Y-91586260D01*
X205582068Y-91873158D01*
X205694010Y-92143411D01*
X205856525Y-92386632D01*
X206063368Y-92593475D01*
X206237760Y-92710000D01*
X206063368Y-92826525D01*
X205856525Y-93033368D01*
X205694010Y-93276589D01*
X205582068Y-93546842D01*
X205525000Y-93833740D01*
X205525000Y-94126260D01*
X205582068Y-94413158D01*
X205694010Y-94683411D01*
X205856525Y-94926632D01*
X206063368Y-95133475D01*
X206237760Y-95250000D01*
X206063368Y-95366525D01*
X205856525Y-95573368D01*
X205694010Y-95816589D01*
X205582068Y-96086842D01*
X205525000Y-96373740D01*
X205525000Y-96666260D01*
X205582068Y-96953158D01*
X205694010Y-97223411D01*
X205856525Y-97466632D01*
X206063368Y-97673475D01*
X206237760Y-97790000D01*
X206063368Y-97906525D01*
X205856525Y-98113368D01*
X205694010Y-98356589D01*
X205582068Y-98626842D01*
X205525000Y-98913740D01*
X205525000Y-99206260D01*
X205582068Y-99493158D01*
X205694010Y-99763411D01*
X205856525Y-100006632D01*
X206063368Y-100213475D01*
X206306589Y-100375990D01*
X206576842Y-100487932D01*
X206863740Y-100545000D01*
X207156260Y-100545000D01*
X207443158Y-100487932D01*
X207713411Y-100375990D01*
X207956632Y-100213475D01*
X208163475Y-100006632D01*
X208281100Y-99830594D01*
X208452412Y-100060269D01*
X208668645Y-100255178D01*
X208918748Y-100404157D01*
X209193109Y-100501481D01*
X209423000Y-100380814D01*
X209423000Y-99187000D01*
X209677000Y-99187000D01*
X209677000Y-100380814D01*
X209906891Y-100501481D01*
X210181252Y-100404157D01*
X210431355Y-100255178D01*
X210647588Y-100060269D01*
X210821641Y-99826920D01*
X210946825Y-99564099D01*
X210991476Y-99416890D01*
X210870155Y-99187000D01*
X209677000Y-99187000D01*
X209423000Y-99187000D01*
X209403000Y-99187000D01*
X209403000Y-98933000D01*
X209423000Y-98933000D01*
X209423000Y-96647000D01*
X209677000Y-96647000D01*
X209677000Y-98933000D01*
X210870155Y-98933000D01*
X210991476Y-98703110D01*
X210946825Y-98555901D01*
X210821641Y-98293080D01*
X210647588Y-98059731D01*
X210431355Y-97864822D01*
X210305745Y-97790000D01*
X210431355Y-97715178D01*
X210647588Y-97520269D01*
X210821641Y-97286920D01*
X210946825Y-97024099D01*
X210991476Y-96876890D01*
X210870155Y-96647000D01*
X209677000Y-96647000D01*
X209423000Y-96647000D01*
X209403000Y-96647000D01*
X209403000Y-96393000D01*
X209423000Y-96393000D01*
X209423000Y-94107000D01*
X209677000Y-94107000D01*
X209677000Y-96393000D01*
X210870155Y-96393000D01*
X210991476Y-96163110D01*
X210946825Y-96015901D01*
X210821641Y-95753080D01*
X210647588Y-95519731D01*
X210431355Y-95324822D01*
X210305745Y-95250000D01*
X210431355Y-95175178D01*
X210647588Y-94980269D01*
X210821641Y-94746920D01*
X210946825Y-94484099D01*
X210991476Y-94336890D01*
X210870155Y-94107000D01*
X209677000Y-94107000D01*
X209423000Y-94107000D01*
X209403000Y-94107000D01*
X209403000Y-93853000D01*
X209423000Y-93853000D01*
X209423000Y-91567000D01*
X209677000Y-91567000D01*
X209677000Y-93853000D01*
X210870155Y-93853000D01*
X210991476Y-93623110D01*
X210946825Y-93475901D01*
X210821641Y-93213080D01*
X210647588Y-92979731D01*
X210431355Y-92784822D01*
X210305745Y-92710000D01*
X210431355Y-92635178D01*
X210647588Y-92440269D01*
X210821641Y-92206920D01*
X210946825Y-91944099D01*
X210991476Y-91796890D01*
X210870155Y-91567000D01*
X209677000Y-91567000D01*
X209423000Y-91567000D01*
X209403000Y-91567000D01*
X209403000Y-91313000D01*
X209423000Y-91313000D01*
X209423000Y-89027000D01*
X209677000Y-89027000D01*
X209677000Y-91313000D01*
X210870155Y-91313000D01*
X210991476Y-91083110D01*
X210946825Y-90935901D01*
X210821641Y-90673080D01*
X210647588Y-90439731D01*
X210431355Y-90244822D01*
X210305745Y-90170000D01*
X210431355Y-90095178D01*
X210647588Y-89900269D01*
X210821641Y-89666920D01*
X210946825Y-89404099D01*
X210991476Y-89256890D01*
X210870155Y-89027000D01*
X209677000Y-89027000D01*
X209423000Y-89027000D01*
X209403000Y-89027000D01*
X209403000Y-88773000D01*
X209423000Y-88773000D01*
X209423000Y-86487000D01*
X209677000Y-86487000D01*
X209677000Y-88773000D01*
X210870155Y-88773000D01*
X210991476Y-88543110D01*
X210946825Y-88395901D01*
X210821641Y-88133080D01*
X210647588Y-87899731D01*
X210431355Y-87704822D01*
X210305745Y-87630000D01*
X210431355Y-87555178D01*
X210647588Y-87360269D01*
X210821641Y-87126920D01*
X210946825Y-86864099D01*
X210991476Y-86716890D01*
X210870155Y-86487000D01*
X209677000Y-86487000D01*
X209423000Y-86487000D01*
X209403000Y-86487000D01*
X209403000Y-86233000D01*
X209423000Y-86233000D01*
X209423000Y-83947000D01*
X209677000Y-83947000D01*
X209677000Y-86233000D01*
X210870155Y-86233000D01*
X210991476Y-86003110D01*
X210946825Y-85855901D01*
X210821641Y-85593080D01*
X210647588Y-85359731D01*
X210431355Y-85164822D01*
X210305745Y-85090000D01*
X210431355Y-85015178D01*
X210647588Y-84820269D01*
X210821641Y-84586920D01*
X210946825Y-84324099D01*
X210991476Y-84176890D01*
X210870155Y-83947000D01*
X209677000Y-83947000D01*
X209423000Y-83947000D01*
X209403000Y-83947000D01*
X209403000Y-83693000D01*
X209423000Y-83693000D01*
X209423000Y-81407000D01*
X209677000Y-81407000D01*
X209677000Y-83693000D01*
X210870155Y-83693000D01*
X210991476Y-83463110D01*
X210946825Y-83315901D01*
X210821641Y-83053080D01*
X210647588Y-82819731D01*
X210431355Y-82624822D01*
X210305745Y-82550000D01*
X210431355Y-82475178D01*
X210647588Y-82280269D01*
X210821641Y-82046920D01*
X210946825Y-81784099D01*
X210991476Y-81636890D01*
X210870155Y-81407000D01*
X209677000Y-81407000D01*
X209423000Y-81407000D01*
X207137000Y-81407000D01*
X207137000Y-81427000D01*
X206883000Y-81427000D01*
X206883000Y-81407000D01*
X205689845Y-81407000D01*
X205568524Y-81636890D01*
X205613175Y-81784099D01*
X205738359Y-82046920D01*
X205912412Y-82280269D01*
X206128645Y-82475178D01*
X206245534Y-82544805D01*
X206063368Y-82666525D01*
X205856525Y-82873368D01*
X205694010Y-83116589D01*
X205582068Y-83386842D01*
X205525000Y-83673740D01*
X198335000Y-83673740D01*
X198277932Y-83386842D01*
X198165990Y-83116589D01*
X198003475Y-82873368D01*
X197871620Y-82741513D01*
X197944180Y-82719502D01*
X198054494Y-82660537D01*
X198151185Y-82581185D01*
X198230537Y-82484494D01*
X198289502Y-82374180D01*
X198325812Y-82254482D01*
X198338072Y-82130000D01*
X198338072Y-80430000D01*
X198325812Y-80305518D01*
X198289502Y-80185820D01*
X198230537Y-80075506D01*
X198151185Y-79978815D01*
X198054494Y-79899463D01*
X197944180Y-79840498D01*
X197824482Y-79804188D01*
X197700000Y-79791928D01*
X196000000Y-79791928D01*
X195875518Y-79804188D01*
X195755820Y-79840498D01*
X195645506Y-79899463D01*
X195548815Y-79978815D01*
X195469463Y-80075506D01*
X195410498Y-80185820D01*
X195374188Y-80305518D01*
X195361928Y-80430000D01*
X191988072Y-80430000D01*
X191975812Y-80305518D01*
X191939502Y-80185820D01*
X191880537Y-80075506D01*
X191801185Y-79978815D01*
X191704494Y-79899463D01*
X191594180Y-79840498D01*
X191474482Y-79804188D01*
X191350000Y-79791928D01*
X189650000Y-79791928D01*
X189525518Y-79804188D01*
X189405820Y-79840498D01*
X189295506Y-79899463D01*
X189198815Y-79978815D01*
X189119463Y-80075506D01*
X189060498Y-80185820D01*
X189024188Y-80305518D01*
X189011928Y-80430000D01*
X188645000Y-80430000D01*
X188645000Y-79096890D01*
X205568524Y-79096890D01*
X205613175Y-79244099D01*
X205738359Y-79506920D01*
X205912412Y-79740269D01*
X206128645Y-79935178D01*
X206254255Y-80010000D01*
X206128645Y-80084822D01*
X205912412Y-80279731D01*
X205738359Y-80513080D01*
X205613175Y-80775901D01*
X205568524Y-80923110D01*
X205689845Y-81153000D01*
X206883000Y-81153000D01*
X206883000Y-78867000D01*
X207137000Y-78867000D01*
X207137000Y-81153000D01*
X209423000Y-81153000D01*
X209423000Y-78867000D01*
X209677000Y-78867000D01*
X209677000Y-81153000D01*
X210870155Y-81153000D01*
X210991476Y-80923110D01*
X210946825Y-80775901D01*
X210821641Y-80513080D01*
X210647588Y-80279731D01*
X210431355Y-80084822D01*
X210305745Y-80010000D01*
X210431355Y-79935178D01*
X210647588Y-79740269D01*
X210821641Y-79506920D01*
X210946825Y-79244099D01*
X210991476Y-79096890D01*
X210870155Y-78867000D01*
X209677000Y-78867000D01*
X209423000Y-78867000D01*
X207137000Y-78867000D01*
X206883000Y-78867000D01*
X205689845Y-78867000D01*
X205568524Y-79096890D01*
X188645000Y-79096890D01*
X188645000Y-75350000D01*
X205521928Y-75350000D01*
X205521928Y-77050000D01*
X205534188Y-77174482D01*
X205570498Y-77294180D01*
X205629463Y-77404494D01*
X205708815Y-77501185D01*
X205805506Y-77580537D01*
X205915820Y-77639502D01*
X205996466Y-77663966D01*
X205912412Y-77739731D01*
X205738359Y-77973080D01*
X205613175Y-78235901D01*
X205568524Y-78383110D01*
X205689845Y-78613000D01*
X206883000Y-78613000D01*
X206883000Y-78593000D01*
X207137000Y-78593000D01*
X207137000Y-78613000D01*
X209423000Y-78613000D01*
X209423000Y-78593000D01*
X209677000Y-78593000D01*
X209677000Y-78613000D01*
X210870155Y-78613000D01*
X210991476Y-78383110D01*
X210946825Y-78235901D01*
X210821641Y-77973080D01*
X210647588Y-77739731D01*
X210431355Y-77544822D01*
X210314466Y-77475195D01*
X210496632Y-77353475D01*
X210703475Y-77146632D01*
X210865990Y-76903411D01*
X210977932Y-76633158D01*
X211035000Y-76346260D01*
X211035000Y-76053740D01*
X210977932Y-75766842D01*
X210865990Y-75496589D01*
X210703475Y-75253368D01*
X210496632Y-75046525D01*
X210253411Y-74884010D01*
X209983158Y-74772068D01*
X209696260Y-74715000D01*
X209403740Y-74715000D01*
X209116842Y-74772068D01*
X208846589Y-74884010D01*
X208603368Y-75046525D01*
X208471513Y-75178380D01*
X208449502Y-75105820D01*
X208390537Y-74995506D01*
X208311185Y-74898815D01*
X208214494Y-74819463D01*
X208104180Y-74760498D01*
X207984482Y-74724188D01*
X207860000Y-74711928D01*
X206160000Y-74711928D01*
X206035518Y-74724188D01*
X205915820Y-74760498D01*
X205805506Y-74819463D01*
X205708815Y-74898815D01*
X205629463Y-74995506D01*
X205570498Y-75105820D01*
X205534188Y-75225518D01*
X205521928Y-75350000D01*
X188645000Y-75350000D01*
X188645000Y-74345000D01*
X211405000Y-74345000D01*
X211405001Y-100915000D01*
G37*
%TD.AperFunction*%
%TD*%
M02*
